<?xml version="1.0" encoding="utf-8"?>
<!-- Generator: Adobe Illustrator 22.0.1, SVG Export Plug-In . SVG Version: 6.00 Build 0)  -->
<svg version="1.1" id="white_art" xmlns="http://www.w3.org/2000/svg" xmlns:xlink="http://www.w3.org/1999/xlink" x="0px" y="0px"
	 viewBox="0 0 98 52" style="enable-background:new 0 0 98 52;" xml:space="preserve">
<style type="text/css">
	.st0{fill:#FFFFFF;}
	.st1{fill:none;stroke:#FFFFFF;stroke-width:0.5599;stroke-miterlimit:10;}
	.st2{fill:none;stroke:#FFFFFF;stroke-width:0.5599;stroke-linecap:round;stroke-miterlimit:10;}
	.st3{fill:#231F20;}
	.st4{fill:none;}
</style>
<g>
	<g>
		<path class="st0" d="M36.4,3.2h0.8l1.9,5.6L41,3.2h0.6l1.9,5.7l1.9-5.6h0.8L43.8,10h-0.6l-1.9-5.5L39.4,10h-0.6L36.4,3.2z"/>
		<path class="st0" d="M48.5,3.2h0.7l3.1,6.8h-0.8l-0.8-1.8H47L46.2,10h-0.8L48.5,3.2z M50.4,7.5l-1.5-3.5l-1.5,3.5H50.4z"/>
		<path class="st0" d="M52.9,7.2V3.2h0.8v3.9c0,1.5,0.8,2.3,2.1,2.3c1.2,0,2-0.8,2-2.2V3.2h0.8v3.9c0,2-1.1,3-2.8,3
			C54,10.1,52.9,9.1,52.9,7.2z"/>
		<path class="st0" d="M59.8,3.2h0.8v4l3.9-4h1l-2.9,3l3,3.8h-1l-2.6-3.3l-1.4,1.5V10h-0.8V3.2z"/>
		<path class="st0" d="M66.4,3.2h4.9v0.7h-4.1v2.3h3.7v0.7h-3.7v2.4h4.2V10h-4.9V3.2z"/>
		<path class="st0" d="M72.1,9l0.5-0.6c0.7,0.6,1.4,1,2.3,1c0.9,0,1.5-0.5,1.5-1.2v0c0-0.6-0.3-1-1.8-1.3c-1.6-0.3-2.3-0.8-2.3-2v0
			c0-1.1,0.9-1.8,2.2-1.8c1,0,1.7,0.3,2.4,0.8l-0.4,0.6c-0.6-0.5-1.3-0.7-2-0.7c-0.9,0-1.4,0.5-1.4,1.1v0c0,0.6,0.3,1,1.8,1.3
			c1.5,0.3,2.2,0.9,2.2,1.9v0c0,1.2-1,1.9-2.3,1.9C73.8,10.1,72.9,9.7,72.1,9z"/>
		<path class="st0" d="M78.3,3.2h0.8v3H83v-3h0.8V10H83v-3h-3.9v3h-0.8V3.2z"/>
		<path class="st0" d="M87.5,3.2h0.7l3.1,6.8h-0.8l-0.8-1.8H86L85.2,10h-0.8L87.5,3.2z M89.4,7.5l-1.5-3.5l-1.5,3.5H89.4z"/>
		<path class="st0" d="M36.8,14.4L36.8,14.4c0-1,0.8-1.9,1.8-1.9c0.7,0,1,0.2,1.4,0.6l-0.3,0.3c-0.3-0.3-0.6-0.5-1.1-0.5
			c-0.8,0-1.4,0.6-1.4,1.5v0c0,0.8,0.6,1.5,1.4,1.5c0.5,0,0.8-0.2,1.2-0.5l0.3,0.3c-0.4,0.4-0.8,0.6-1.4,0.6
			C37.6,16.2,36.8,15.4,36.8,14.4z"/>
		<path class="st0" d="M40.4,14.4L40.4,14.4c0-1,0.7-1.9,1.8-1.9c1.1,0,1.8,0.9,1.8,1.9v0c0,1-0.7,1.9-1.8,1.9
			C41.2,16.2,40.4,15.4,40.4,14.4z M43.7,14.4L43.7,14.4c0-0.8-0.6-1.5-1.4-1.5c-0.8,0-1.4,0.7-1.4,1.5v0c0,0.8,0.6,1.5,1.4,1.5
			C43.1,15.9,43.7,15.2,43.7,14.4z"/>
		<path class="st0" d="M44.9,14.7v-2.1h0.4v2.1c0,0.8,0.4,1.2,1.1,1.2c0.7,0,1.1-0.4,1.1-1.2v-2.1h0.4v2.1c0,1.1-0.6,1.6-1.5,1.6
			C45.5,16.2,44.9,15.7,44.9,14.7z"/>
		<path class="st0" d="M48.8,12.6h0.4l2.3,2.9v-2.9h0.4v3.6h-0.3l-2.3-3v3h-0.4V12.6z"/>
		<path class="st0" d="M53.8,12.9h-1.2v-0.4h2.8v0.4h-1.2v3.2h-0.4V12.9z"/>
		<path class="st0" d="M57.2,14.8l-1.5-2.2h0.5l1.2,1.8l1.2-1.8h0.5l-1.5,2.2v1.4h-0.4V14.8z"/>
		<path class="st0" d="M62.2,12.9H61v-0.4h2.8v0.4h-1.2v3.2h-0.4V12.9z"/>
		<path class="st0" d="M64.5,12.6h2.6v0.4h-2.2v1.2h2v0.4h-2v1.3h2.2v0.4h-2.6V12.6z"/>
		<path class="st0" d="M67.8,14.4L67.8,14.4c0-1,0.8-1.9,1.8-1.9c0.7,0,1,0.2,1.4,0.6l-0.3,0.3c-0.3-0.3-0.6-0.5-1.1-0.5
			c-0.8,0-1.4,0.6-1.4,1.5v0c0,0.8,0.6,1.5,1.4,1.5c0.5,0,0.8-0.2,1.2-0.5l0.3,0.3c-0.4,0.4-0.8,0.6-1.4,0.6
			C68.5,16.2,67.8,15.4,67.8,14.4z"/>
		<path class="st0" d="M71.7,12.6h0.4v1.6h2.1v-1.6h0.4v3.6h-0.4v-1.6h-2.1v1.6h-0.4V12.6z"/>
		<path class="st0" d="M75.5,12.6h0.4l2.3,2.9v-2.9h0.4v3.6h-0.3l-2.3-3v3h-0.4V12.6z"/>
		<path class="st0" d="M79.6,12.6H80v3.6h-0.4V12.6z"/>
		<path class="st0" d="M80.8,14.4L80.8,14.4c0-1,0.8-1.9,1.8-1.9c0.7,0,1,0.2,1.4,0.6l-0.3,0.3c-0.3-0.3-0.6-0.5-1.1-0.5
			c-0.8,0-1.4,0.6-1.4,1.5v0c0,0.8,0.6,1.5,1.4,1.5c0.5,0,0.8-0.2,1.2-0.5l0.3,0.3c-0.4,0.4-0.8,0.6-1.4,0.6
			C81.6,16.2,80.8,15.4,80.8,14.4z"/>
		<path class="st0" d="M86.1,12.5h0.4l1.6,3.6h-0.4l-0.4-1h-2l-0.4,1h-0.4L86.1,12.5z M87.1,14.9L86.3,13l-0.8,1.8H87.1z"/>
		<path class="st0" d="M88.8,12.6h0.4v3.2h2v0.4h-2.4V12.6z"/>
		<path class="st0" d="M36.7,22.4L36.7,22.4c0-2.3,1.7-4.2,4.1-4.2c1.5,0,2.3,0.5,3.1,1.3l-0.6,0.7c-0.7-0.6-1.4-1.1-2.5-1.1
			c-1.8,0-3.1,1.5-3.1,3.3v0c0,1.9,1.3,3.3,3.1,3.3c1.1,0,1.8-0.4,2.6-1.2l0.6,0.6c-0.8,0.9-1.8,1.4-3.2,1.4
			C38.4,26.6,36.7,24.7,36.7,22.4z"/>
		<path class="st0" d="M44.9,22.4L44.9,22.4c0-2.2,1.7-4.2,4.1-4.2c2.5,0,4.1,1.9,4.1,4.1v0c0,2.2-1.7,4.2-4.1,4.2
			C46.5,26.6,44.9,24.6,44.9,22.4z M52.1,22.4L52.1,22.4c0-1.9-1.3-3.3-3.2-3.3c-1.8,0-3.2,1.5-3.2,3.3v0c0,1.8,1.3,3.3,3.2,3.3
			C50.8,25.7,52.1,24.2,52.1,22.4z"/>
		<path class="st0" d="M54.8,18.4h0.9v7.2h4.5v0.8h-5.4V18.4z"/>
		<path class="st0" d="M61.8,18.4h0.9v7.2h4.5v0.8h-5.4V18.4z"/>
		<path class="st0" d="M68.8,18.4h5.8v0.8h-4.9v2.8h4.4v0.8h-4.4v2.8h5v0.8h-5.9V18.4z"/>
		<path class="st0" d="M76.1,22.4L76.1,22.4c0-2.2,1.6-4.2,4-4.2c1.4,0,2.2,0.4,3,1.1L82.5,20c-0.6-0.5-1.3-0.9-2.5-0.9
			c-1.8,0-3.1,1.5-3.1,3.3v0c0,1.9,1.2,3.4,3.2,3.4c0.9,0,1.8-0.4,2.3-0.8v-2h-2.5v-0.8h3.3v3.2c-0.7,0.7-1.9,1.2-3.2,1.2
			C77.7,26.6,76.1,24.7,76.1,22.4z"/>
		<path class="st0" d="M85.4,18.4h5.8v0.8h-4.9v2.8h4.4v0.8h-4.4v2.8h5v0.8h-5.9V18.4z"/>
	</g>
	<g>
		<line class="st1" x1="59.1" y1="34.1" x2="91.2" y2="34.1"/>
		<line class="st1" x1="0.1" y1="34.1" x2="50.1" y2="34.1"/>
		<line class="st2" x1="54.7" y1="39" x2="59.1" y2="34.1"/>
		<line class="st2" x1="54.6" y1="39" x2="50.2" y2="34.1"/>
	</g>
	<g>
		<path class="st0" d="M39.4,48.3c0,0.2,0,0.2-0.4,0.2c-0.4,0-0.4,0-0.4-0.2V45c0-0.1,0-0.4-0.1-0.4c-0.1-0.1-1,0-1.1,0
			c-0.1,0.1-0.1,0.3-0.1,0.4v3.3c0,0.2-0.1,0.2-0.4,0.2c-0.3,0-0.4,0-0.4-0.2v-8c0-0.2,0-0.2,0.4-0.2c0.3,0,0.4,0,0.4,0.2v2.8
			c0,0.2,0,0.4,0.1,0.5c0.1,0,0.9,0.1,1,0c0.1-0.1,0.1-0.3,0.1-0.5v-2.9c0-0.2,0.1-0.2,0.4-0.2c0.3,0,0.4,0,0.4,0.2V48.3z"/>
		<path class="st0" d="M42.9,48.4c0,0.1,0,0.1-0.4,0.1c-0.3,0-0.4,0-0.4-0.1c0-0.1,0-0.2-0.1-0.2c-0.1,0-0.1,0.3-0.6,0.3
			c-0.8,0-1.4-0.5-1.4-1.5v-2.8c0-0.9,0.6-1.5,1.4-1.5c0.1,0,0.3,0,0.5,0.2c0.1,0.1,0.1,0.1,0.1-0.1c0-0.1,0.1-0.1,0.4-0.1
			c0.4,0,0.4,0,0.4,0.1V48.4z M42.1,47v-2.8c0-0.3-0.3-0.7-0.6-0.7c-0.4,0-0.6,0.4-0.6,0.7V47c0,0.5,0.3,0.7,0.6,0.7
			C41.9,47.7,42.1,47.5,42.1,47z"/>
		<path class="st0" d="M46.5,48.4c0,0.1-0.1,0.1-0.4,0.1c-0.3,0-0.4,0-0.4-0.1v-4.1c0-0.4-0.1-0.8-0.4-0.8c-0.4,0-0.8,0.3-0.8,0.7
			v4.2c0,0.1-0.1,0.1-0.4,0.1c-0.3,0-0.4,0-0.4-0.1v-5.6c0-0.1,0-0.1,0.4-0.1c0.3,0,0.3,0,0.3,0.1c0,0.4,0,0.6,0.1,0.4
			c0.2-0.3,0.5-0.5,0.8-0.5c0.8,0,1.2,0.5,1.2,1.5V48.4z"/>
		<path class="st0" d="M50,48.5c0,0.1-0.2,0.1-0.4,0.1c-0.2,0-0.3,0-0.3-0.1c0-0.1,0-0.3-0.1-0.3c-0.1,0-0.1,0.3-0.6,0.3
			c-1,0-1.4-0.6-1.4-1.5v-2.8c0-0.9,0.6-1.5,1.4-1.5c0.1,0,0.2,0,0.4,0.2c0.1,0,0.2,0,0.2-0.2v-2.5c0-0.1,0-0.1,0.4-0.1
			c0.3,0,0.4,0,0.4,0.1V48.5z M49.2,47v-2.8c0-0.3-0.3-0.7-0.6-0.7c-0.4,0-0.6,0.4-0.6,0.7V47c0,0.5,0.3,0.7,0.6,0.7
			C48.9,47.7,49.2,47.5,49.2,47z"/>
		<path class="st0" d="M53.3,47.2c0,0.8-0.6,1.4-1.3,1.4c-0.8,0-1.3-0.4-1.3-1.4c0-0.1,0.1-0.1,0.4-0.1c0.2,0,0.4,0,0.4,0.1
			c0,0.3,0.1,0.6,0.5,0.6c0.5,0,0.6-0.4,0.6-0.7c0-0.6-0.4-0.9-0.9-1.3c-0.5-0.4-1-0.8-1-1.6c0-0.6,0.3-1.4,1.3-1.4
			c0.9,0,1.3,0.8,1.3,1.4c0,0.1-0.1,0.1-0.4,0.1c-0.3,0-0.4,0-0.4-0.1c0-0.4-0.2-0.6-0.5-0.6c-0.3,0-0.5,0.3-0.5,0.6
			c0,0.4,0.3,0.7,0.8,1.1C52.7,45.7,53.3,46.2,53.3,47.2z"/>
		<path class="st0" d="M55.7,45.7c0,0.1,0,0.2-0.2,0.2c-0.8,0-0.8,0-1.5,0c-0.1,0-0.3,0-0.3-0.2c0-0.1,0-0.2,0-0.3
			c0-0.1,0.1-0.2,0.4-0.2c0.4,0,0.6,0,1,0c0.3,0,0.6,0.1,0.6,0.2C55.7,45.5,55.7,45.6,55.7,45.7z"/>
		<path class="st0" d="M59.2,47c0,1.1-0.6,1.5-1.4,1.5c-0.8,0-1.4-0.5-1.4-1.5v-2.8c0-0.9,0.6-1.5,1.4-1.5c0.8,0,1.4,0.6,1.4,1.5V47
			z M58.4,47v-2.8c0-0.3-0.3-0.7-0.6-0.7c-0.4,0-0.6,0.4-0.6,0.7V47c0,0.5,0.3,0.7,0.6,0.7C58.2,47.7,58.4,47.5,58.4,47z"/>
		<path class="st0" d="M62.7,48.4c0,0.1-0.1,0.1-0.4,0.1c-0.3,0-0.4,0-0.4-0.1v-4.1c0-0.4-0.1-0.8-0.4-0.8c-0.4,0-0.8,0.3-0.8,0.7
			v4.2c0,0.1-0.1,0.1-0.4,0.1c-0.3,0-0.4,0-0.4-0.1v-5.6c0-0.1,0-0.1,0.4-0.1c0.3,0,0.3,0,0.3,0.1c0,0.4,0,0.6,0.1,0.4
			c0.2-0.3,0.5-0.5,0.8-0.5c0.8,0,1.2,0.5,1.2,1.5V48.4z"/>
		<path class="st0" d="M68.1,48.3c0,0.2,0,0.2-0.4,0.2c-0.4,0-0.4,0-0.4-0.2V45c0-0.1,0-0.4-0.1-0.4c-0.1-0.1-1,0-1.1,0
			c-0.1,0.1-0.1,0.3-0.1,0.4v3.3c0,0.2-0.1,0.2-0.4,0.2c-0.3,0-0.4,0-0.4-0.2v-8c0-0.2,0-0.2,0.4-0.2c0.3,0,0.4,0,0.4,0.2v2.8
			c0,0.2,0,0.4,0.1,0.5c0.1,0,0.9,0.1,1,0c0.1-0.1,0.1-0.3,0.1-0.5v-2.9c0-0.2,0.1-0.2,0.4-0.2c0.3,0,0.4,0,0.4,0.2V48.3z"/>
		<path class="st0" d="M69.9,41.2c0,0.3,0,0.5-0.5,0.6c-0.3,0-0.5-0.3-0.5-0.6c0-0.3,0.1-0.5,0.5-0.5C69.7,40.7,69.9,40.9,69.9,41.2
			z M69.8,48.3c0,0.2,0,0.2-0.4,0.2c-0.3,0-0.4,0-0.4-0.2V43c0-0.2,0.1-0.2,0.4-0.2c0.3,0,0.4,0,0.4,0.2V48.3z"/>
		<path class="st0" d="M71.9,51c-0.9,0-1.4-0.6-1.4-1.5c0-0.1,0.1-0.1,0.4-0.1c0.3,0,0.4,0,0.4,0.1c0,0.4,0.2,0.7,0.6,0.7
			c0.4,0,0.6-0.4,0.6-0.7v-0.8c0-0.2,0-0.3-0.1-0.3c-0.1,0.1-0.1,0.2-0.5,0.2c-0.7,0-1.4-0.5-1.4-1.5v-2.8c0-0.8,0.5-1.5,1.5-1.5
			c0.4,0,0.4,0.3,0.6,0.3c0.1,0,0.1,0,0.1-0.2c0-0.1,0-0.1,0.3-0.1c0.3,0,0.3,0,0.3,0.1v6.6C73.3,50.3,72.9,51,71.9,51z M72.5,47
			v-2.8c0-0.3-0.3-0.7-0.6-0.7c-0.4,0-0.6,0.4-0.6,0.7V47c0,0.5,0.3,0.7,0.6,0.7C72.3,47.7,72.5,47.5,72.5,47z"/>
		<path class="st0" d="M76.9,48.4c0,0.1-0.2,0.1-0.4,0.1c-0.3,0-0.4,0-0.4-0.1v-4.2c0-0.3-0.3-0.7-0.6-0.7c-0.4,0-0.6,0.4-0.6,0.7
			v4.2c0,0.1-0.2,0.1-0.4,0.1c-0.2,0-0.3,0-0.3-0.1v-8.2c0-0.1,0.1-0.1,0.4-0.1c0.3,0,0.4,0,0.4,0.1v2.5c0,0.2,0.1,0.3,0.2,0.2
			c0.2-0.1,0.3-0.2,0.4-0.2c0.8,0,1.4,0.6,1.4,1.5V48.4z"/>
		<path class="st0" d="M80.4,47c0,1.1-0.6,1.5-1.4,1.5c-0.8,0-1.4-0.5-1.4-1.5v-2.8c0-0.9,0.6-1.5,1.4-1.5c0.8,0,1.4,0.6,1.4,1.5
			v1.5c0,0.1,0,0.2-0.2,0.2h-1.6c-0.1,0-0.1,0.1-0.1,0.2V47c0,0.5,0.3,0.7,0.6,0.7c0.4,0,0.6-0.3,0.6-0.7c0,0,0.1-0.1,0.4-0.1
			C80.3,46.9,80.4,46.9,80.4,47z M79.6,45v-0.8c0-0.4-0.3-0.7-0.6-0.7c-0.4,0-0.6,0.4-0.6,0.7V45c0,0.2,0.1,0.2,0.6,0.2
			C79.4,45.2,79.6,45.2,79.6,45z"/>
		<path class="st0" d="M82.8,43.2c0,0.2,0,0.4-0.1,0.4c-0.3,0-0.9,0.3-0.9,0.7v4.1c0,0.1-0.1,0.1-0.4,0.1c-0.3,0-0.4,0-0.4-0.1v-5.6
			c0-0.1,0.1-0.1,0.4-0.1c0.3,0,0.3,0,0.3,0.1c0,0.1,0,0.2,0,0.3c0,0.2,0,0.2,0,0.1c0.2-0.3,0.6-0.5,0.9-0.5
			C82.8,42.8,82.8,42.9,82.8,43.2z"/>
		<path class="st0" d="M87.7,48.2c0,0.3,0,0.3-0.1,0.3h-1.8c-0.2,0-0.4,0-0.5,0c-0.1-0.1-0.1-0.3-0.1-0.4v-7.6c0-0.2,0-0.2,0.1-0.3
			c0.1-0.1,0.2-0.1,0.3-0.1h2c0.1,0,0.1,0.1,0.1,0.4c0,0.2,0,0.3-0.2,0.3h-1.2c-0.1,0-0.2,0-0.3,0.1C86,41,86,41,86,41.1v2.3
			c0,0.1,0,0.2,0.1,0.3c0.1,0.1,0.2,0,0.3,0h0.6c0.1,0,0.2,0.1,0.2,0.3c0,0.2,0,0.3-0.2,0.3h-0.5c-0.1,0-0.3,0-0.3,0
			c-0.1,0.1-0.1,0.2-0.1,0.3v2.6c0,0.2,0,0.4,0.1,0.4c0.1,0,0.2,0,0.4,0h1.1C87.7,47.9,87.7,47.9,87.7,48.2z"/>
		<path class="st0" d="M91,48.5c0,0.1-0.2,0.1-0.4,0.1c-0.2,0-0.3,0-0.3-0.1c0-0.1,0-0.3-0.1-0.3c-0.1,0-0.1,0.3-0.6,0.3
			c-1,0-1.4-0.6-1.4-1.5v-2.8c0-0.9,0.6-1.5,1.4-1.5c0.1,0,0.2,0,0.4,0.2c0.1,0,0.2,0,0.2-0.2v-2.5c0-0.1,0-0.1,0.4-0.1
			s0.4,0,0.4,0.1V48.5z M90.2,47v-2.8c0-0.3-0.3-0.7-0.6-0.7c-0.4,0-0.6,0.4-0.6,0.7V47c0,0.5,0.3,0.7,0.6,0.7
			C90,47.7,90.2,47.5,90.2,47z"/>
	</g>
	<g>
		<path class="st0" d="M29.9,0.8v28.1H1V0.8H29.9 M30.8,0H0.1v29.8h30.6V0L30.8,0z"/>
	</g>
	<path class="st3" d="M22.6,18.3"/>
	<g>
		<path class="st0" d="M4.9,21.3h0.6l1.4,4.2l1.4-4.2h0.5l1.4,4.2l1.4-4.2h0.6l-1.8,5.1H9.9l-1.4-4.1l-1.4,4.1H6.7L4.9,21.3z"/>
		<path class="st0" d="M12.3,23.8L12.3,23.8c0-1.4,1.1-2.6,2.6-2.6c0.9,0,1.5,0.3,2,0.8l-0.4,0.4c-0.4-0.4-0.9-0.7-1.6-0.7
			c-1.1,0-2,0.9-2,2.1v0c0,1.2,0.8,2.1,2,2.1c0.7,0,1.1-0.3,1.6-0.7l0.4,0.4c-0.5,0.5-1.1,0.9-2,0.9C13.4,26.4,12.3,25.3,12.3,23.8z
			"/>
		<path class="st0" d="M19,21.8h-1.7v-0.5h4v0.5h-1.7v4.5H19V21.8z"/>
		<path class="st0" d="M21.4,23.8L21.4,23.8c0-1.4,1.1-2.6,2.6-2.6c0.9,0,1.5,0.3,2,0.8l-0.4,0.4c-0.4-0.4-0.9-0.7-1.6-0.7
			c-1.1,0-2,0.9-2,2.1v0c0,1.2,0.8,2.1,2,2.1c0.7,0,1.2-0.3,1.6-0.7l0.4,0.4c-0.5,0.5-1.1,0.9-2,0.9C22.4,26.4,21.4,25.3,21.4,23.8z
			"/>
	</g>
	<polygon class="st4" points="6.5,17.8 8.3,17.8 8.3,11 6.5,11.7 	"/>
	<polygon class="st4" points="14.2,10.5 9.6,10.7 9.6,17.8 14.2,17.8 	"/>
	<polygon class="st4" points="6.5,17.8 8.3,17.8 8.3,11 6.5,11.7 	"/>
	<polygon class="st4" points="9.6,17.8 14.2,17.8 14.2,10.5 9.6,10.7 	"/>
	<path class="st0" d="M22.5,8.7l-7-0.7l0,0V4.3l5.7,2.8l-5.7-3.7v0l-9.5,6.8l2.5-1.5l7-0.7v0.9h0l-7,0.5l-2.8,1.2v7.4l-0.6,0.3v0.7
		h3.7h6.8v-10l7,0.5l2.9,1.2v-0.2L22.5,8.7z M8.3,17.8H6.5v-6.1L8.3,11V17.8z M14.2,17.8H9.6v-7l4.6-0.2V17.8z"/>
	<polygon class="st0" points="16.9,11.4 21.4,11.6 21.4,17.9 21.9,17.9 21.9,10.7 16.9,10.5 	"/>
	<polygon class="st0" points="22.9,11.6 24.5,12.2 24.5,17.9 24.9,17.9 24.9,11.6 22.9,10.8 	"/>
</g>
</svg>
